# This file uses centimeters as units for non-parametric coordinates.

mtllib board.mtl
g default
v -0.675973 -0.770392 0.079317
v 0.675973 -0.770392 0.079317
v -0.675973 0.015032 0.079317
v 0.675973 0.015032 0.079317
v -0.675973 0.015032 -0.079317
v 0.675973 0.015032 -0.079317
v -0.675973 -0.770392 -0.079317
v 0.675973 -0.770392 -0.079317
vt 0.000000 0.000000
vt -0.000000 0.000000
vt 0.000000 0.000000
vt 1.000000 0.000000
vt 0.000000 1.000000
vt 1.000000 1.000000
vt 1.000000 0.000000
vt 1.000000 0.000000
vt 0.000000 1.000000
vt 1.000000 1.000000
vt 0.000000 0.000000
vt 1.000000 0.000000
vn 0.000000 0.000000 1.000000
vn 0.000000 0.000000 1.000000
vn 0.000000 0.000000 1.000000
vn 0.000000 0.000000 1.000000
vn 0.000000 0.000000 1.000000
vn 0.000000 0.000000 1.000000
vn 0.000000 1.000000 0.000000
vn 0.000000 1.000000 0.000000
vn 0.000000 1.000000 0.000000
vn 0.000000 1.000000 0.000000
vn 0.000000 1.000000 0.000000
vn 0.000000 1.000000 0.000000
vn 0.000000 0.000000 -1.000000
vn 0.000000 0.000000 -1.000000
vn 0.000000 0.000000 -1.000000
vn 0.000000 0.000000 -1.000000
vn 0.000000 0.000000 -1.000000
vn 0.000000 0.000000 -1.000000
vn 0.000000 -1.000000 0.000000
vn 0.000000 -1.000000 0.000000
vn 0.000000 -1.000000 0.000000
vn 0.000000 -1.000000 0.000000
vn 0.000000 -1.000000 0.000000
vn 0.000000 -1.000000 0.000000
vn 1.000000 0.000000 0.000000
vn 1.000000 0.000000 0.000000
vn 1.000000 0.000000 0.000000
vn 1.000000 0.000000 0.000000
vn 1.000000 0.000000 0.000000
vn 1.000000 0.000000 0.000000
vn -1.000000 0.000000 0.000000
vn -1.000000 0.000000 0.000000
vn -1.000000 0.000000 0.000000
vn -1.000000 0.000000 0.000000
vn -1.000000 0.000000 0.000000
vn -1.000000 0.000000 0.000000
s off
g board1:pCube1
usemtl initialShadingGroup
f 1/3/1 2/4/2 3/5/3
f 3/5/4 2/4/5 4/6/6
f 3/5/7 4/6/8 5/9/9
f 5/9/10 4/6/11 6/10/12
f 5/9/13 6/10/14 7/11/15
f 7/11/16 6/10/17 8/12/18
f 7/7/19 8/8/20 1/1/21
f 1/1/22 8/8/23 2/2/24
f 2/4/25 8/12/26 4/6/27
f 4/6/28 8/12/29 6/10/30
f 7/11/31 1/3/32 5/9/33
f 5/9/34 1/3/35 3/5/36
