#made by yamada masaki

mtllib cutter.mtl
g default
v -0.866025 0.500000 0.000000
v 0.866025 0.500000 0.000000
v -0.000000 -1.000000 0.000000
v 0.000000 1.000000 0.000000
v 0.866025 -0.500000 0.000000
v -0.866026 -0.500000 0.000000
v -1.000000 0.000000 0.000000
v -0.500000 0.866025 0.000000
v 0.000000 0.582170 0.000000
v -0.504174 -0.291085 0.000000
v -0.504174 0.291085 0.000000
v 0.500000 0.866025 0.000000
v 1.000000 -0.000000 0.000000
v 0.504174 -0.291085 0.000000
v 0.504174 0.291085 0.000000
v 0.500000 -0.866026 0.000000
v -0.500000 -0.866025 0.000000
v -0.000000 -0.582170 0.000000
v -1.319646 -0.013346 0.017963
v -0.671161 1.136119 0.029251
v 0.648485 1.149466 0.011288
v 1.319646 0.013346 -0.017963
v 0.671161 -1.136119 -0.029251
v -0.648485 -1.149466 -0.011288
v -1.159961 0.654192 0.027509
v -0.013213 1.331716 0.023620
v 1.146748 0.677523 -0.003889
v 1.159961 -0.654192 -0.027509
v 0.013213 -1.331716 -0.023620
v -1.146748 -0.677523 0.003889
v -0.288132 0.499059 0.000000
v -0.576264 0.000000 0.000000
v -0.288132 -0.499059 0.000000
v 0.288132 -0.499059 0.000000
v 0.576264 -0.000000 0.000000
v 0.288132 0.499059 0.000000
vt 0.066987 0.250000
vt 0.933013 0.250000
vt 0.500000 1.000000
vt 0.500000 0.000000
vt 0.933013 0.750000
vt 0.066987 0.750000
vt 0.000000 0.500000
vt 0.250000 0.066987
vt 0.500000 0.250000
vt 0.283494 0.625000
vt 0.283494 0.375000
vt 0.750000 0.066987
vt 1.000000 0.500000
vt 0.716506 0.625000
vt 0.716506 0.375000
vt 0.750000 0.933013
vt 0.250000 0.933013
vt 0.500000 0.750000
vt 0.000000 0.000000
vt 1.000000 0.000000
vt 0.500000 1.000000
vt 0.000000 0.000000
vt 1.000000 0.000000
vt 0.500000 1.000000
vt 0.000000 0.000000
vt 1.000000 0.000000
vt 0.500000 1.000000
vt 0.000000 0.000000
vt 1.000000 0.000000
vt 0.500000 1.000000
vt 0.000000 0.000000
vt 1.000000 0.000000
vt 0.500000 1.000000
vt 0.000000 0.000000
vt 1.000000 0.000000
vt 0.500000 1.000000
vt 0.000000 0.000000
vt 1.000000 0.000000
vt 0.500000 1.000000
vt 0.000000 0.000000
vt 1.000000 0.000000
vt 0.500000 1.000000
vt 0.000000 0.000000
vt 1.000000 0.000000
vt 0.500000 1.000000
vt 0.000000 0.000000
vt 1.000000 0.000000
vt 0.500000 1.000000
vt 0.000000 0.000000
vt 1.000000 0.000000
vt 0.500000 1.000000
vt 0.000000 0.000000
vt 1.000000 0.000000
vt 0.500000 1.000000
vt 0.391747 0.312500
vt 0.283494 0.500000
vt 0.391747 0.687500
vt 0.608253 0.687500
vt 0.716506 0.500000
vt 0.608253 0.312500
vn -0.007495 -0.004024 -0.999964
vn -0.027709 -0.002957 -0.999612
vn 0.000000 0.000000 -1.000000
vn 0.000000 0.000000 -1.000000
vn 0.000000 0.000000 -1.000000
vn -0.032242 0.012782 -0.999398
vn -0.025007 0.030241 -0.999230
vn -0.005323 0.025817 -0.999653
vn 0.000000 0.000000 -1.000000
vn 0.000000 0.000000 -1.000000
vn 0.002404 0.011323 -0.999933
vn 0.000000 0.000000 -1.000000
vn 0.000000 0.000000 -1.000000
vn -0.007495 -0.004024 -0.999964
vn -0.027709 -0.002957 -0.999612
vn -0.032242 0.012782 -0.999398
vn 0.000000 0.000000 -1.000000
vn 0.000000 0.000000 -1.000000
vn -0.025007 0.030241 -0.999230
vn 0.000000 0.000000 -1.000000
vn 0.000000 0.000000 -1.000000
vn -0.005323 0.025817 -0.999653
vn 0.002404 0.011323 -0.999933
vn 0.000000 0.000000 -1.000000
vn -0.055482 -0.014866 -0.998349
vn -0.066000 0.066000 -0.995635
vn 0.009351 0.034900 -0.999347
vn -0.055482 -0.014866 -0.998349
vn -0.066000 0.066000 -0.995635
vn 0.009351 0.034900 -0.999347
vn -0.081761 0.021908 -0.996411
vn -0.018828 0.070267 -0.997351
vn -0.008487 -0.008487 -0.999928
vn -0.081761 0.021908 -0.996411
vn -0.018828 0.070267 -0.997351
vn -0.008487 -0.008487 -0.999928
s 1
g pDisc1
usemtl initialShadingGroup
f 6/6/1 7/7/2 10/10/3
f 10/10/3 7/7/2 32/56/4
f 32/56/4 7/7/2 11/11/5
f 7/7/2 1/1/6 11/11/5
f 11/11/5 1/1/6 8/8/7
f 4/4/8 9/9/9 8/8/7
f 9/9/9 31/55/10 8/8/7
f 8/8/7 31/55/10 11/11/5
f 4/4/8 12/12/11 9/9/9
f 9/9/9 12/12/11 36/60/12
f 36/60/12 12/12/11 15/15/13
f 12/12/11 2/2/14 15/15/13
f 15/15/13 2/2/14 13/13/15
f 5/5/16 14/14/17 13/13/15
f 14/14/17 35/59/18 13/13/15
f 13/13/15 35/59/18 15/15/13
f 5/5/16 16/16/19 14/14/17
f 14/14/17 16/16/19 34/58/20
f 34/58/20 16/16/19 18/18/21
f 16/16/19 3/3/22 18/18/21
f 18/18/21 3/3/22 17/17/23
f 6/6/1 10/10/3 17/17/23
f 10/10/3 33/57/24 17/17/23
f 17/17/23 33/57/24 18/18/21
f 7/19/2 6/20/1 19/21/25
f 8/22/7 1/23/6 20/24/26
f 12/25/11 4/26/8 21/27/27
f 13/28/15 2/29/14 22/30/28
f 16/31/19 5/32/16 23/33/29
f 17/34/23 3/35/22 24/36/30
f 1/37/6 7/38/2 25/39/31
f 4/40/8 8/41/7 26/42/32
f 2/43/14 12/44/11 27/45/33
f 5/46/16 13/47/15 28/48/34
f 3/49/22 16/50/19 29/51/35
f 6/52/1 17/53/23 30/54/36
