# This file uses centimeters as units for non-parametric coordinates.

mtllib p1.mtl
g default
v 0.668523 0.337631 0.255296
v 0.577350 -0.577350 0.255296
v -0.577350 -0.577350 0.255296
v -0.577350 0.577350 0.255296
v 0.668523 0.337631 -0.255296
v 0.577350 -0.577350 -0.255296
v -0.577350 -0.577350 -0.255296
v -0.577350 0.577350 -0.255296
v -0.542098 1.488623 0.396639
v -0.707107 0.000000 0.312672
v 0.000000 -0.707107 0.312672
v 0.707107 0.000000 0.312672
v 0.000000 0.000000 0.442185
v -0.370721 1.737220 -0.396639
v 0.707107 0.000000 -0.312672
v 0.000000 -0.707107 -0.312672
v -0.707107 0.000000 -0.312672
v 0.000000 0.000000 -0.442185
v -0.707107 -0.707107 0.000000
v 0.707107 -0.707107 0.000000
v 0.000000 -1.000000 0.000000
v 0.572960 0.630028 0.000000
v -0.707107 0.707107 0.000000
v 0.000000 0.876088 0.000000
v -1.000000 0.000000 0.000000
v 1.012180 0.000000 0.000000
v 0.382799 0.734289 0.283984
v 0.000000 0.353553 0.377429
v -0.288675 0.642229 0.283984
v -0.288675 0.642229 -0.283984
v 0.000000 0.353553 -0.377429
v 0.382799 0.734289 -0.283984
v 0.094124 0.945614 0.156336
v 0.094124 0.945614 -0.156336
v 0.834330 0.244416 0.000000
v 0.879077 -0.345980 0.000000
v 0.540703 0.169988 0.377429
v 0.540703 0.169988 -0.377429
v 0.453017 0.503280 -0.269640
v 0.386107 0.346765 -0.377429
v 0.453017 0.503280 0.269640
v 0.386107 0.346765 0.377429
vt 0.625000 0.695913
vt 0.625000 0.304087
vt 0.375000 0.304087
vt 0.375000 0.695913
vt 0.875000 0.695913
vt 0.875000 0.304087
vt 0.125000 0.304087
vt 0.125000 0.695913
vt 0.500000 0.750000
vt 0.375000 0.500000
vt 0.500000 0.250000
vt 0.625000 0.500000
vt 0.500000 0.500000
vt 1.000000 0.750000
vt 0.875000 0.500000
vt 1.000000 0.250000
vt 0.125000 0.500000
vt 1.000000 0.500000
vt 0.250000 0.250000
vt 0.750000 0.250000
vt 0.500000 1.000000
vt 0.750000 0.750000
vt 0.250000 0.750000
vt 0.500000 1.000000
vt 0.250000 0.500000
vt 0.750000 0.500000
vt 1.125000 0.500000
vt 1.125000 0.695913
vt 1.125000 0.304087
vt 1.250000 0.250000
vt 1.250000 0.750000
vt 0.562500 0.722957
vt 0.500000 0.625000
vt 0.437500 0.722957
vt 1.062500 0.722957
vt 1.000000 0.625000
vt 0.937500 0.722957
vt 0.500000 0.875000
vt 0.750000 0.875000
vt 0.750000 0.625000
vt 0.750000 0.375000
vt 0.562500 0.500000
vt 0.937500 0.500000
vt 0.906250 0.709435
vt 0.968750 0.562500
vt 0.593750 0.709435
vt 0.531250 0.562500
vn 0.124010 0.106753 0.986522
vn 0.170457 0.087640 0.981460
vn 0.173819 0.066386 0.982538
vn -0.526628 -0.265181 0.807677
vn -0.418287 -0.127160 0.899370
vn -0.228284 0.085648 0.969820
vn -0.178465 -0.136941 0.974370
vn -0.157771 -0.157771 0.974791
vn -0.157771 -0.157771 0.974791
vn -0.136941 -0.178465 0.974370
vn 0.136941 -0.178465 0.974370
vn 0.157771 -0.157771 0.974791
vn 0.158966 -0.160084 0.974219
vn 0.178275 -0.144372 0.973332
vn 0.176719 -0.194560 0.964840
vn -0.233739 0.079931 -0.969008
vn -0.352987 -0.050565 -0.934261
vn -0.415533 -0.123843 -0.901108
vn 0.199395 0.039830 -0.979109
vn 0.193998 0.060493 -0.979135
vn 0.138460 0.091388 -0.986143
vn 0.136941 -0.178465 -0.974370
vn 0.158966 -0.160084 -0.974219
vn 0.157771 -0.157771 -0.974791
vn 0.178275 -0.144372 -0.973332
vn 0.176719 -0.194560 -0.964840
vn -0.136941 -0.178465 -0.974370
vn -0.157771 -0.157771 -0.974791
vn -0.157771 -0.157771 -0.974791
vn -0.178465 -0.136941 -0.974370
vn -0.225962 -0.710937 0.665965
vn -0.271378 -0.741419 0.613720
vn -0.271378 -0.741419 0.613720
vn -0.318793 -0.769634 0.553203
vn -0.318793 -0.769634 -0.553203
vn -0.271378 -0.741419 -0.613720
vn -0.271378 -0.741419 -0.613720
vn -0.225962 -0.710937 -0.665965
vn 0.225962 -0.710937 -0.665965
vn 0.271378 -0.741419 -0.613720
vn 0.271378 -0.741419 -0.613720
vn 0.318793 -0.769634 -0.553203
vn 0.318793 -0.769634 0.553203
vn 0.271378 -0.741419 0.613720
vn 0.271378 -0.741419 0.613720
vn 0.225962 -0.710937 0.665965
vn 0.619386 0.776614 -0.115029
vn 0.690790 0.717096 0.092643
vn 0.564461 0.809841 -0.159816
vn 0.654836 0.490356 0.575101
vn 0.607994 0.425749 0.670136
vn 0.638234 0.541034 0.547667
vn -0.363896 0.068304 0.928932
vn -0.489701 0.414572 0.767022
vn -0.471343 0.237333 0.849417
vn -0.483893 0.258822 -0.835978
vn -0.466634 0.368537 -0.804011
vn -0.334238 0.025324 -0.942148
vn -0.769634 -0.318793 0.553203
vn -0.741419 -0.271378 0.613720
vn -0.741419 -0.271378 0.613720
vn -0.710937 -0.225962 0.665965
vn -0.710937 0.225962 0.665965
vn -0.741419 0.271378 0.613720
vn -0.741419 0.271378 0.613720
vn -0.769634 0.318793 0.553203
vn -0.769634 0.318793 -0.553203
vn -0.741419 0.271378 -0.613720
vn -0.741419 0.271378 -0.613720
vn -0.710937 0.225962 -0.665965
vn -0.710937 -0.225962 -0.665965
vn -0.741419 -0.271378 -0.613720
vn -0.741419 -0.271378 -0.613720
vn -0.769634 -0.318793 -0.553203
vn 0.690068 -0.265477 0.673297
vn 0.716186 -0.237194 0.656366
vn 0.719150 -0.275889 0.637737
vn 0.730863 -0.254179 0.633428
vn 0.747495 -0.355961 0.560842
vn 0.690068 -0.265477 -0.673297
vn 0.719150 -0.275889 -0.637737
vn 0.716186 -0.237194 -0.656366
vn 0.730863 -0.254180 -0.633429
vn 0.747495 -0.355961 -0.560842
vn 0.785429 0.532368 -0.315731
vn 0.779217 0.546723 -0.306456
vn 0.756096 0.337186 -0.560914
vn 0.701788 0.196561 -0.684732
vn 0.764991 0.392608 -0.510537
vn 0.785429 0.532368 0.315731
vn 0.756096 0.337186 0.560914
vn 0.779217 0.546723 0.306456
vn 0.701788 0.196561 0.684732
vn 0.764991 0.392608 0.510537
vn -0.198208 0.829410 0.522296
vn -0.211324 0.838142 0.502852
vn -0.333282 0.857281 0.392418
vn -0.178465 0.136941 0.974370
vn -0.164687 0.150840 0.974744
vn -0.167819 0.147690 0.974692
vn 0.534377 0.648244 0.542422
vn 0.598588 0.800761 0.021785
vn 0.711521 0.458826 0.532181
vn 0.331426 0.771739 -0.542748
vn -0.198208 0.829410 -0.522296
vn -0.333282 0.857281 -0.392419
vn -0.211324 0.838142 -0.502852
vn 0.534377 0.648244 -0.542422
vn 0.570475 0.768192 -0.290583
vn 0.360676 0.772028 -0.523341
vn 0.558489 0.809532 -0.180963
vn 0.061620 0.171454 -0.983263
vn 0.705612 0.171793 -0.687459
vn -0.178465 0.136941 -0.974370
vn -0.167819 0.147690 -0.974692
vn -0.164687 0.150840 -0.974744
vn 0.093214 0.081518 0.992303
vn 0.061620 0.171454 0.983263
vn 0.031499 0.149481 0.988263
vn 0.526417 0.200566 0.826232
vn 0.526417 0.200566 0.826231
vn 0.526417 0.200566 0.826231
vn 0.526417 0.200566 -0.826231
vn 0.526417 0.200566 -0.826231
vn 0.526417 0.200566 -0.826231
vn 0.031499 0.149481 -0.988263
vn 0.093214 0.081518 -0.992303
vn 0.705612 0.171793 0.687459
vn -0.795222 0.606319 0.000000
vn -0.795222 0.606319 0.000000
vn -0.795222 0.606319 0.000000
vn -0.795222 0.606319 0.000000
vn 0.752753 0.658303 0.000000
vn 0.752754 0.658303 0.000000
vn 0.752754 0.658302 0.000000
vn 0.752754 0.658302 0.000000
vn 0.919503 -0.393083 0.000000
vn 0.919503 -0.393083 0.000000
vn 0.919503 -0.393083 0.000000
vn 0.919503 -0.393082 0.000000
vn -0.609422 -0.792846 0.000000
vn -0.609422 -0.792846 0.000000
vn -0.609422 -0.792846 0.000000
vn -0.609422 -0.792846 0.000000
s 1
g pPlatonic1
usemtl initialShadingGroup
f 28/33/1 27/32/2 9/9/3
s 2
f 9/9/4 29/34/5 28/33/6
s 3
f 10/10/7 3/3/8 13/13/9
f 13/13/9 3/3/8 11/11/10
s 4
f 11/11/11 2/2/12 13/13/13
f 2/2/12 12/12/14 13/13/13
f 12/12/14 37/42/15 13/13/13
s 5
f 31/36/16 30/35/17 14/14/18
s 6
f 14/14/19 32/37/20 31/36/21
s 7
f 16/16/22 18/18/23 6/6/24
f 6/6/24 18/18/23 15/15/25
f 15/15/25 18/18/23 38/43/26
s 8
f 16/16/27 7/29/28 18/18/29
f 18/18/29 7/29/28 17/27/30
s 9
f 11/11/31 3/3/32 21/21/33
f 21/21/33 3/3/32 19/19/34
s 10
f 19/30/35 7/29/36 21/21/37
f 21/21/37 7/29/36 16/16/38
s 11
f 16/16/39 6/6/40 21/21/41
f 21/21/41 6/6/40 20/20/42
s 12
f 20/20/43 2/2/44 21/21/45
f 21/21/45 2/2/44 11/11/46
s 13
f 9/9/47 27/32/48 33/38/49
s 14
f 34/39/50 32/37/51 14/14/52
s 15
f 14/14/53 30/35/54 34/39/55
s 16
f 33/38/56 29/34/57 9/9/58
s 17
f 19/19/59 3/3/60 25/25/61
f 25/25/61 3/3/60 10/10/62
s 18
f 10/10/63 4/4/64 25/25/65
f 25/25/65 4/4/64 23/23/66
s 19
f 23/23/67 8/8/68 25/25/69
f 25/25/69 8/8/68 17/17/70
s 20
f 17/17/71 7/7/72 25/25/73
f 25/25/73 7/7/72 19/19/74
s 21
f 26/26/75 12/12/76 36/41/77
f 12/12/76 2/2/78 36/41/77
f 2/2/78 20/20/79 36/41/77
s 22
f 26/26/80 36/41/81 15/15/82
f 15/15/82 36/41/81 6/6/83
f 20/20/84 6/6/83 36/41/81
s 23
f 22/22/85 35/40/86 5/5/87
f 15/15/88 5/5/87 26/26/89
f 5/5/87 35/40/86 26/26/89
s 24
f 22/22/90 1/1/91 35/40/92
f 12/12/93 26/26/94 1/1/91
f 1/1/91 26/26/94 35/40/92
s 16
f 23/23/95 4/4/96 24/24/97
f 4/4/96 29/34/57 24/24/97
f 29/34/57 33/38/56 24/24/97
s 2
f 10/10/98 13/13/99 4/4/100
f 13/13/99 28/33/6 4/4/100
f 28/33/6 29/34/5 4/4/100
s 13
f 1/1/101 22/22/102 41/46/103
f 24/24/104 33/38/49 22/22/102
f 33/38/49 27/32/48 22/22/102
f 27/32/48 41/46/103 22/22/102
s 15
f 23/31/105 24/24/106 8/28/107
f 8/28/107 24/24/106 30/35/54
f 34/39/55 30/35/54 24/24/106
s 14
f 5/5/108 39/44/109 22/22/110
f 22/22/110 39/44/109 24/24/111
f 24/24/111 39/44/109 34/39/50
f 39/44/109 32/37/51 34/39/50
s 6
f 31/36/21 32/37/20 40/45/112
f 40/45/112 32/37/20 39/44/113
s 5
f 17/27/114 8/28/115 18/18/116
f 18/18/116 8/28/115 31/36/16
f 8/28/115 30/35/17 31/36/16
s 1
f 37/42/117 42/47/118 13/13/119
f 13/13/119 42/47/118 28/33/1
s off
f 12/12/120 1/1/121 37/42/122
f 38/43/123 5/5/124 15/15/125
s 6
f 31/36/21 40/45/112 18/18/126
f 18/18/126 40/45/112 38/43/127
s 1
f 41/46/128 27/32/2 42/47/118
f 42/47/118 27/32/2 28/33/1
s 32
f 37/42/129 1/1/130 38/43/131
f 38/43/131 1/1/130 5/5/132
s 33
f 38/43/133 40/45/134 37/42/135
f 37/42/135 40/45/134 42/47/136
s 34
f 40/45/137 39/44/138 42/47/139
f 42/47/139 39/44/138 41/46/140
s 35
f 1/1/141 41/46/142 5/5/143
f 5/5/143 41/46/142 39/44/144
